<?xml version="1.0" encoding="UTF-8" standalone="no"?>
<!--
  Copyright 2007 University of Oxford

  Licensed under the Apache License, Version 2.0 (the "License");
  you may not use this file except in compliance with the License.
  You may obtain a copy of the License at

      http://www.apache.org/licenses/LICENSE-2.0

  Unless required by applicable law or agreed to in writing, software
  distributed under the License is distributed on an "AS IS" BASIS,
  WITHOUT WARRANTIES OR CONDITIONS OF ANY KIND, either express or implied.
  See the License for the specific language governing permissions and
  limitations under the License.
-->
<!DOCTYPE svg PUBLIC "-//W3C//DTD SVG 1.0//EN" "http://www.w3.org/TR/2001/PR-SVG-20010719/DTD/svg10.dtd">
<svg width="53cm" height="22cm" viewBox="-24 -5 53 22">
  <rect style="fill: none; fill-opacity:0; stroke-width: 0.1; stroke-dasharray: 2; stroke: #c0c0c0" x="-15.335" y="7.80001" width="44.435" height="8.675" rx="1.2" ry="1.2"/>
  <rect style="fill: none; fill-opacity:0; stroke-width: 0.1; stroke-dasharray: 2; stroke: #c0c0c0" x="-15.45" y="-4.77499" width="44.4" height="5.75" rx="1.2" ry="1.2"/>
  <rect style="fill: #ffffff" x="-9.925" y="3.7" width="3.15" height="1.5"/>
  <rect style="fill: none; fill-opacity:0; stroke-width: 0.09; stroke: #000000" x="-9.925" y="3.7" width="3.15" height="1.5"/>
  <text style="fill: #000000; text-anchor:middle; font-size: 0.7; font-family: sans; font-style: normal; font-weight: normal" x="-8.15" y="4.75">User</text>
  <rect style="fill: #ffffff" x="-1.15" y="4.2" width="4.6" height="1.5"/>
  <rect style="fill: none; fill-opacity:0; stroke-width: 0.09; stroke: #000000" x="-1.15" y="4.2" width="4.6" height="1.5"/>
  <text style="fill: #000000; text-anchor:middle; font-size: 0.7; font-family: sans; font-style: normal; font-weight: normal" x="1.35" y="5.25">Developer</text>
  <rect style="fill: #ffffff" x="11.75" y="4.2" width="4.8" height="1.5"/>
  <rect style="fill: none; fill-opacity:0; stroke-width: 0.09; stroke: #000000" x="11.75" y="4.2" width="4.8" height="1.5"/>
  <text style="fill: #000000; text-anchor:middle; font-size: 0.7; font-family: sans; font-style: normal; font-weight: normal" x="14.35" y="5.25">Committer</text>
  <rect style="fill: #ffffff" x="22.025" y="4.3" width="3.25" height="1.5"/>
  <rect style="fill: none; fill-opacity:0; stroke-width: 0.09; stroke: #000000" x="22.025" y="4.3" width="3.25" height="1.5"/>
  <text style="fill: #000000; text-anchor:middle; font-size: 0.7; font-family: sans; font-style: normal; font-weight: normal" x="23.85" y="5.35">PMC</text>
  <line style="fill: none; fill-opacity:0; stroke-width: 0.1; stroke: #000000" x1="-6.775" y1="4.45" x2="-1.69784" y2="4.9013"/>
  <polygon style="fill: #000000" points="-1.71997,5.15032 -1.1998,4.94557 -1.67571,4.65228 "/>
  <line style="fill: none; fill-opacity:0; stroke-width: 0.1; stroke: #000000" x1="3.45" y1="4.95" x2="11.2" y2="4.95"/>
  <polygon style="fill: #000000" points="11.2,5.2 11.7,4.95 11.2,4.7 "/>
  <line style="fill: none; fill-opacity:0; stroke-width: 0.1; stroke: #000000" x1="16.55" y1="4.95" x2="21.4751" y2="5.03996"/>
  <polygon style="fill: #000000" points="21.4705,5.28991 21.975,5.04909 21.4797,4.79 "/>
  <ellipse style="fill: #ffffff" cx="-11.1" cy="10.3333" rx="4" ry="1.33333"/>
  <ellipse style="fill: none; fill-opacity:0; stroke-width: 0.09; stroke-dasharray: 0.5; stroke: #000000" cx="-11.1" cy="10.3333" rx="4" ry="1.33333"/>
  <text style="fill: #000000; text-anchor:middle; font-size: 0.7; font-family: sans; font-style: normal; font-weight: normal" x="-11.1" y="10.6333">User Documentation</text>
  <ellipse style="fill: #ffffff" cx="-0.75" cy="10.575" rx="4.725" ry="1.575"/>
  <ellipse style="fill: none; fill-opacity:0; stroke-width: 0.09; stroke-dasharray: 0.5; stroke: #000000" cx="-0.75" cy="10.575" rx="4.725" ry="1.575"/>
  <text style="fill: #000000; text-anchor:middle; font-size: 0.7; font-family: sans; font-style: normal; font-weight: normal" x="-0.75" y="10.875">Developer Documentation</text>
  <line style="fill: none; fill-opacity:0; stroke-width: 0.1; stroke: #000000" x1="-8.35" y1="5.2" x2="-10.7776" y2="8.55444"/>
  <polygon style="fill: #000000" points="-10.9801,8.40787 -11.0707,8.95949 -10.575,8.701 "/>
  <line style="fill: none; fill-opacity:0; stroke-width: 0.1; stroke: #000000" x1="1.15" y1="5.7" x2="-0.47557" y2="8.52336"/>
  <polygon style="fill: #000000" points="-0.692225,8.39862 -0.725052,8.95667 -0.258914,8.6481 "/>
  <ellipse style="fill: #ffffff" cx="6.2451" cy="13.675" rx="3.975" ry="1.325"/>
  <ellipse style="fill: none; fill-opacity:0; stroke-width: 0.09; stroke-dasharray: 0.5; stroke: #000000" cx="6.2451" cy="13.675" rx="3.975" ry="1.325"/>
  <text style="fill: #000000; text-anchor:middle; font-size: 0.7; font-family: sans; font-style: normal; font-weight: normal" x="6.2451" y="13.975">Source Distributions</text>
  <ellipse style="fill: #ffffff" cx="14.7451" cy="13.6417" rx="3.725" ry="1.24167"/>
  <ellipse style="fill: none; fill-opacity:0; stroke-width: 0.09; stroke-dasharray: 0.5; stroke: #000000" cx="14.7451" cy="13.6417" rx="3.725" ry="1.24167"/>
  <text style="fill: #000000; text-anchor:middle; font-size: 0.7; font-family: sans; font-style: normal; font-weight: normal" x="14.7451" y="13.9417">Process Guidance</text>
  <ellipse style="fill: #ffffff" cx="-5.2299" cy="-1.15" rx="3" ry="1"/>
  <ellipse style="fill: none; fill-opacity:0; stroke-width: 0.09; stroke-dasharray: 0.5; stroke: #000000" cx="-5.2299" cy="-1.15" rx="3" ry="1"/>
  <text style="fill: #000000; text-anchor:middle; font-size: 0.7; font-family: sans; font-style: normal; font-weight: normal" x="-5.2299" y="-0.85">Issue Tracker</text>
  <line style="fill: none; fill-opacity:0; stroke-width: 0.1; stroke: #000000" x1="-8.35" y1="3.7" x2="-5.57619" y2="0.277298"/>
  <polygon style="fill: #000000" points="-5.38196,0.434702 -5.26138,-0.111155 -5.77042,0.119894 "/>
  <line style="fill: none; fill-opacity:0; stroke-width: 0.1; stroke: #000000" x1="1.15" y1="5.7" x2="5.9106" y2="11.9134"/>
  <polygon style="fill: #000000" points="5.71215,12.0655 6.21469,12.3103 6.10904,11.7614 "/>
  <line style="fill: none; fill-opacity:0; stroke-width: 0.1; stroke: #000000" x1="1.15" y1="5.7" x2="8.0603" y2="8.49386"/>
  <polygon style="fill: #000000" points="7.96659,8.72563 8.52385,8.68127 8.154,8.26208 "/>
  <line style="fill: none; fill-opacity:0; stroke-width: 0.1; stroke: #000000" x1="14.15" y1="5.7" x2="14.6964" y2="11.8522"/>
  <polygon style="fill: #000000" points="14.4474,11.8743 14.7407,12.3502 14.9455,11.83 "/>
  <ellipse style="fill: #ffffff" cx="13.7951" cy="-2.60833" rx="3.275" ry="1.09167"/>
  <ellipse style="fill: none; fill-opacity:0; stroke-width: 0.09; stroke-dasharray: 0.5; stroke: #000000" cx="13.7951" cy="-2.60833" rx="3.275" ry="1.09167"/>
  <text style="fill: #000000; text-anchor:middle; font-size: 0.7; font-family: sans; font-style: normal; font-weight: normal" x="13.7951" y="-2.30833">Version Control</text>
  <line style="fill: none; fill-opacity:0; stroke-width: 0.1; stroke: #000000" x1="14.15" y1="4.2" x2="13.8292" y2="-0.967723"/>
  <polygon style="fill: #000000" points="14.0787,-0.983214 13.7982,-1.46676 13.5797,-0.952233 "/>
  <ellipse style="fill: #ffffff" cx="19.4951" cy="10" rx="2.875" ry="1"/>
  <ellipse style="fill: none; fill-opacity:0; stroke-width: 0.09; stroke-dasharray: 0.5; stroke: #000000" cx="19.4951" cy="10" rx="2.875" ry="1"/>
  <text style="fill: #000000; text-anchor:middle; font-size: 0.7; font-family: sans; font-style: normal; font-weight: normal" x="19.4951" y="10.3">IPR Registry</text>
  <line style="fill: none; fill-opacity:0; stroke-width: 0.1; stroke: #000000" x1="23.65" y1="5.8" x2="19.9308" y2="8.6644"/>
  <polygon style="fill: #000000" points="19.7783,8.46634 19.5347,8.96949 20.0834,8.86247 "/>
  <ellipse style="fill: #ffffff" cx="8.5702" cy="9.93334" rx="3.7" ry="1.23333"/>
  <ellipse style="fill: none; fill-opacity:0; stroke-width: 0.09; stroke-dasharray: 0.5; stroke: #000000" cx="8.5702" cy="9.93334" rx="3.7" ry="1.23333"/>
  <text style="fill: #000000; text-anchor:middle; font-size: 0.7; font-family: sans; font-style: normal; font-weight: normal" x="8.5702" y="10.2333">Governance Docs.</text>
  <ellipse style="fill: #ffffff" cx="-5.5548" cy="13.6917" rx="3.875" ry="1.29167"/>
  <ellipse style="fill: none; fill-opacity:0; stroke-width: 0.09; stroke-dasharray: 0.5; stroke: #000000" cx="-5.5548" cy="13.6917" rx="3.875" ry="1.29167"/>
  <text style="fill: #000000; text-anchor:middle; font-size: 0.7; font-family: sans; font-style: normal; font-weight: normal" x="-5.5548" y="13.9917">Binary Distributions</text>
  <line style="fill: none; fill-opacity:0; stroke-width: 0.1; stroke: #000000" x1="-8.35" y1="5.2" x2="-5.75385" y2="11.8873"/>
  <polygon style="fill: #000000" points="-5.9869,11.9778 -5.5729,12.3534 -5.52079,11.7968 "/>
  <ellipse style="fill: #ffffff" cx="24.3452" cy="13.775" rx="3.225" ry="1.075"/>
  <ellipse style="fill: none; fill-opacity:0; stroke-width: 0.09; stroke-dasharray: 0.5; stroke: #000000" cx="24.3452" cy="13.775" rx="3.225" ry="1.075"/>
  <text style="fill: #000000; text-anchor:middle; font-size: 0.7; font-family: sans; font-style: normal; font-weight: normal" x="24.3452" y="14.075">Strategy Docs.</text>
  <line style="fill: none; fill-opacity:0; stroke-width: 0.1; stroke: #000000" x1="23.65" y1="5.8" x2="24.2901" y2="12.1528"/>
  <polygon style="fill: #000000" points="24.0413,12.1778 24.3402,12.6503 24.5388,12.1277 "/>
  <ellipse style="fill: #ffffff" cx="1.55" cy="-3.42499" rx="3.45" ry="1.15"/>
  <ellipse style="fill: none; fill-opacity:0; stroke-width: 0.09; stroke-dasharray: 0.5; stroke: #000000" cx="1.55" cy="-3.42499" rx="3.45" ry="1.15"/>
  <text style="fill: #000000; text-anchor:middle; font-size: 0.7; font-family: sans; font-style: normal; font-weight: normal" x="1.55" y="-3.12499">Decision Making</text>
  <line style="fill: none; fill-opacity:0; stroke-width: 0.1; stroke: #000000" x1="1.15" y1="4.2" x2="1.51609" y2="-1.72604"/>
  <polygon style="fill: #000000" points="1.76561,-1.71062 1.54692,-2.22509 1.26656,-1.74145 "/>
  <ellipse style="fill: #ffffff" cx="-11.025" cy="-2.96666" rx="3.475" ry="1.15833"/>
  <ellipse style="fill: none; fill-opacity:0; stroke-width: 0.09; stroke-dasharray: 0.5; stroke: #000000" cx="-11.025" cy="-2.96666" rx="3.475" ry="1.15833"/>
  <text style="fill: #000000; text-anchor:middle; font-size: 0.7; font-family: sans; font-style: normal; font-weight: normal" x="-11.025" y="-2.66666">Communications</text>
  <line style="fill: none; fill-opacity:0; stroke-width: 0.1; stroke: #000000" x1="-8.35" y1="3.7" x2="-10.7847" y2="-1.31358"/>
  <polygon style="fill: #000000" points="-10.5599,-1.42279 -11.0032,-1.76335 -11.0096,-1.20437 "/>
  <text style="fill: #000000; text-anchor:start; font-size: 0.8; font-family: sans; font-style: normal; font-weight: normal" x="-23.7" y="12.275">Project Outputs Needed</text>
  <text style="fill: #000000; text-anchor:start; font-size: 0.8; font-family: sans; font-style: normal; font-weight: normal" x="-21.2" y="-1.67499">Support Tools</text>
  <ellipse style="fill: #ffffff" cx="23.675" cy="-2.38332" rx="3.425" ry="1.14167"/>
  <ellipse style="fill: none; fill-opacity:0; stroke-width: 0.09; stroke-dasharray: 0.5; stroke: #000000" cx="23.675" cy="-2.38332" rx="3.425" ry="1.14167"/>
  <text style="fill: #000000; text-anchor:middle; font-size: 0.7; font-family: sans; font-style: normal; font-weight: normal" x="23.675" y="-2.08332">Project Planning</text>
  <line style="fill: none; fill-opacity:0; stroke-width: 0.1; stroke: #000000" x1="23.65" y1="4.3" x2="23.6725" y2="-0.691662"/>
  <polygon style="fill: #000000" points="23.9225,-0.690534 23.6748,-1.19166 23.4225,-0.69279 "/>
</svg>
