<?xml version="1.0" encoding="UTF-8" standalone="no"?>

<svg
   xmlns:dc="http://purl.org/dc/elements/1.1/"
   xmlns:cc="http://web.resource.org/cc/"
   xmlns:rdf="http://www.w3.org/1999/02/22-rdf-syntax-ns#"
   xmlns:svg="http://www.w3.org/2000/svg"
   xmlns="http://www.w3.org/2000/svg"
   xmlns:sodipodi="http://inkscape.sourceforge.net/DTD/sodipodi-0.dtd"
   xmlns:inkscape="http://www.inkscape.org/namespaces/inkscape"
   version="1.0"
   id="Layer_1"
   x="0px"
   y="0px"
   enable-background="new 0 0 474.731 619.573"
   xml:space="preserve"
   sodipodi:version="0.32"
   inkscape:version="0.43"
   width="408.28pt"
   height="526pt"
   sodipodi:docbase="C:\Documents and Settings\rowan\Desktop"
   sodipodi:docname="simal2.svg"><metadata
   id="metadata23"><rdf:RDF><cc:Work
       rdf:about=""><dc:format>image/svg+xml</dc:format><dc:type
         rdf:resource="http://purl.org/dc/dcmitype/StillImage" /></cc:Work></rdf:RDF></metadata><defs
   id="defs273" /><sodipodi:namedview
   inkscape:window-height="1168"
   inkscape:window-width="1600"
   inkscape:pageshadow="2"
   inkscape:pageopacity="0.0"
   borderopacity="1.0"
   bordercolor="#666666"
   pagecolor="#ffffff"
   id="base"
   inkscape:zoom="0.59557147"
   inkscape:cx="237.36549"
   inkscape:cy="309.7865"
   inkscape:window-x="-4"
   inkscape:window-y="-4"
   inkscape:current-layer="Layer_1" />

<polyline
   points="38.001,190.191 25.738,152.796 48.75,154.007 "
   id="polyline236"
   transform="translate(0,16.7906)" />
<polyline
   points="462.521,181.713 472.665,150.828 461.006,152.19 "
   id="polyline238"
   transform="translate(0,16.7906)" />
<path
   d="M 464.231,167.1086 C 466.982,185.1516 463.496,202.7756 454.636,219.1866 L 454.636,219.1866 C 445.573,235.9746 430.926,251.4256 411.717,264.6526 L 411.717,264.6526 C 392.165,278.1166 368.016,289.1886 340.502,296.9356 L 340.502,296.9356 C 312.71,304.7606 281.734,309.1226 249.033,309.1226 L 249.033,309.1226 C 216.33,309.1226 185.354,304.7616 157.561,296.9356 L 157.561,296.9356 C 130.047,289.1886 105.897,278.1166 86.345,264.6526 L 86.345,264.6526 C 67.136,251.4246 52.489,235.9736 43.426,219.1866 L 43.426,219.1866 C 34.567,202.7756 31.08,185.1526 33.831,167.1086 L 33.831,167.1086 C 36.514,149.5156 44.885,133.1586 57.556,118.6106 L 57.556,118.6106 C 69.963,104.3666 86.55,91.791596 106.101,81.410596 L 106.101,81.410596 C 125.351,71.189596 147.595,63.033596 171.773,57.454596 L 171.773,57.454596 C 195.746,51.924596 221.807,48.886596 249.031,48.886596 L 249.031,48.886596 C 276.255,48.886596 302.314,51.924596 326.288,57.454596 L 326.288,57.454596 C 350.466,63.032596 372.709,71.189596 391.959,81.410596 L 391.959,81.410596 C 411.511,91.791596 428.098,104.3666 440.504,118.6106 L 440.504,118.6106 C 453.177,133.1586 461.548,149.5156 464.231,167.1086 z "
   id="path240" />
<path
   d="M 307.209,393.9986 C 307.602,403.3096 313.14,417.1556 319.563,424.7376 L 319.563,424.7376 L 339.259,447.9766 L 339.259,447.9766 C 345.923,455.8416 343.347,459.5806 333.513,456.2286 L 333.513,456.2286 L 304.14,446.2236 L 304.14,446.2236 C 294.456,442.9246 286.975,448.2806 287.481,458.2156 L 287.481,458.2156 L 289.042,488.8406 L 289.042,488.8406 C 289.574,499.2616 284.986,500.7616 278.897,492.1376 L 278.897,492.1376 L 260.929,466.6906 L 260.929,466.6906 C 255.075,458.4006 245.591,458.4006 239.749,466.6906 L 239.749,466.6906 L 221.819,492.1386 L 221.819,492.1386 C 215.744,500.7626 211.154,499.2626 211.669,488.8416 L 211.669,488.8416 L 213.184,458.2166 L 213.184,458.2166 C 213.675,448.2806 206.184,442.9256 196.507,446.2246 L 196.507,446.2246 L 167.15,456.2296 L 167.15,456.2296 C 157.32,459.5816 154.738,455.8426 161.391,447.9776 L 161.391,447.9776 L 181.051,424.7386 L 181.051,424.7386 C 187.463,417.1576 193.23,403.3146 193.911,394.0096 L 193.911,394.0096 L 196.549,357.9976 L 196.549,357.9976 C 197.194,349.1966 193.4,336.2926 188.168,329.2916 L 188.168,329.2916 L 125.716,245.7376 L 125.716,245.7376 C 121.065,239.5146 122.687,238.2896 129.324,242.9946 L 129.324,242.9946 L 216.288,304.6526 L 216.288,304.6526 C 223.534,309.7896 230.888,307.2936 232.572,299.1546 L 232.572,299.1546 L 252.55,202.5986 L 252.55,202.5986 C 254.015,195.5176 256.039,195.5656 257.071,202.7046 L 257.071,202.7046 L 270.993,299.0326 L 270.993,299.0326 C 272.179,307.2376 279.241,309.9376 286.633,304.9816 L 286.633,304.9816 L 374.176,246.2816 L 374.176,246.2816 C 380.975,241.7226 382.599,243.0056 377.783,249.1546 L 377.783,249.1546 L 314.861,329.5006 L 314.861,329.5006 C 309.468,336.3856 305.321,349.1986 305.693,358.0066 L 305.693,358.0066 L 307.209,393.9986 z "
   id="path242" />
<path
   d="M 473.684,137.1426 C 476.684,155.5886 473.164,173.6256 464.016,190.4396 L 464.016,190.4396 C 454.648,207.6566 439.416,223.5206 419.381,237.1126 L 419.381,237.1126 C 398.971,250.9586 373.716,262.3546 344.907,270.3326 L 344.907,270.3326 C 315.793,278.3956 283.323,282.8906 249.032,282.8906 L 249.032,282.8906 C 214.741,282.8906 182.27,278.3956 153.155,270.3326 L 153.155,270.3326 C 124.346,262.3546 99.091,250.9586 78.681,237.1126 L 78.681,237.1126 C 58.646,223.5206 43.414,207.6566 34.046,190.4396 L 34.046,190.4396 C 24.897,173.6256 21.378,155.5876 24.378,137.1426 L 24.378,137.1426 C 27.3,119.1766 36.142,102.4896 49.447,87.663596 L 49.447,87.663596 C 62.462,73.160596 79.809,60.366596 100.22,49.812596 L 100.22,49.812596 C 120.303,39.427596 143.481,31.145596 168.655,25.483596 L 168.655,25.483596 C 193.606,19.872596 220.717,16.790596 249.033,16.790596 L 249.033,16.790596 C 277.348,16.790596 304.459,19.872596 329.409,25.483596 L 329.409,25.483596 C 354.582,31.145596 377.76,39.427596 397.843,49.812596 L 397.843,49.812596 C 418.254,60.366596 435.601,73.159596 448.616,87.663596 L 448.616,87.663596 C 461.92,102.4896 470.762,119.1766 473.684,137.1426 z "
   id="path244"
   style="fill:#262261" />
<polygon
   points="152.994,417.972 157.763,439 196.565,421.441 186.594,407.458 152.994,417.972 "
   id="polygon246"
   transform="translate(0,16.7906)" />
<polyline
   points="211.733,475.92 223.98,469.309 222.789,455.652 209.673,455.435 "
   id="polyline248"
   transform="translate(0,16.7906)" />
<polyline
   points="289.049,474.425 291.179,456.359 277.783,453.573 277.865,470.616 "
   id="polyline250"
   transform="translate(0,16.7906)" />
<polyline
   points="347.903,417.677 342.869,438.674 311.87,425.957 321.408,408.669 "
   id="polyline252"
   transform="translate(0,16.7906)" />
<path
   d="M 310.198,370.6196 C 310.629,380.2716 316.482,394.6366 323.258,402.5066 L 323.258,402.5066 L 344.055,426.6546 L 344.055,426.6546 C 351.099,434.8356 348.397,438.7256 338.027,435.2386 L 338.027,435.2386 L 307.067,424.8326 L 307.067,424.8326 C 296.865,421.4026 288.994,426.9706 289.54,437.3066 L 289.54,437.3066 L 291.224,469.2036 L 291.224,469.2036 C 291.799,480.0706 286.962,481.6356 280.531,472.6416 L 280.531,472.6416 L 261.571,446.1256 L 261.571,446.1256 C 255.401,437.4976 245.409,437.4976 239.253,446.1256 L 239.253,446.1256 L 220.336,472.6416 L 220.336,472.6416 C 213.919,481.6356 209.08,480.0716 209.635,469.2036 L 209.635,469.2036 L 211.268,437.3066 L 211.268,437.3066 C 211.797,426.9706 203.915,421.4036 193.72,424.8326 L 193.72,424.8326 L 162.778,435.2386 L 162.778,435.2386 C 152.413,438.7256 149.704,434.8356 156.735,426.6546 L 156.735,426.6546 L 177.492,402.5066 L 177.492,402.5066 C 184.255,394.6376 190.347,380.2776 191.081,370.6316 L 191.081,370.6316 L 193.916,333.3526 L 193.916,333.3526 C 194.608,324.2546 190.649,310.9246 185.171,303.6976 L 185.171,303.6976 L 119.983,217.6816 L 119.983,217.6816 C 115.141,211.2926 116.844,210.0356 123.769,214.8656 L 123.769,214.8656 L 214.702,278.2856 L 214.702,278.2856 C 222.294,283.5806 230.008,281.0076 231.778,272.6206 L 231.778,272.6206 L 252.708,173.4476 L 252.708,173.4476 C 254.237,166.1986 256.353,166.2476 257.433,173.5566 L 257.433,173.5566 L 272.052,272.4966 L 272.052,272.4966 C 273.301,280.9526 280.708,283.7356 288.452,278.6266 L 288.452,278.6266 L 379.995,218.2426 L 379.995,218.2426 C 387.091,213.5616 388.795,214.8786 383.781,221.1936 L 383.781,221.1936 L 318.101,303.9166 L 318.101,303.9166 C 312.456,311.0236 308.127,324.2606 308.535,333.3646 L 308.535,333.3646 L 310.198,370.6196 z "
   id="path254"
   style="fill:#ed1c24" />
<g
   id="g256"
   transform="translate(0,16.7906)">
	<path
   d="M 116.926,583.704 C 116.926,595.829 112.603,605.007 103.959,611.237 C 96.324,616.795 85.995,619.573 72.973,619.573 C 66.742,619.573 58.518,617.889 48.302,614.522 L 49.986,598.523 C 59.472,602.397 67.808,604.333 74.993,604.333 C 80.831,604.333 85.994,602.847 90.486,599.87 C 95.93,596.223 98.653,591.171 98.653,584.715 C 98.653,577.418 94.161,571.272 85.181,566.275 C 76.873,561.954 68.594,557.603 60.342,553.224 C 51.361,546.881 46.87,538.405 46.87,527.795 C 46.87,517.468 50.602,509.327 58.068,503.377 C 65.085,497.819 74.235,495.041 85.518,495.041 C 94.555,495.041 103.116,496.473 111.199,499.335 L 108.757,515.249 C 100.28,511.882 92.759,510.197 86.191,510.197 C 72.157,510.197 65.141,515.558 65.141,526.279 C 65.141,532.342 69.631,537.787 78.613,542.614 C 94.161,550.923 102.442,555.469 103.452,556.255 C 112.434,563.215 116.926,572.366 116.926,583.704 z "
   id="path258" />
	<path
   d="M 158.1,509.86 L 139.829,509.86 L 139.829,491.589 L 158.1,491.589 L 158.1,509.86 z M 157.089,617.468 L 140.838,617.468 L 140.838,529.563 L 157.089,529.563 L 157.089,617.468 z "
   id="path260" />
	<path
   d="M 312.776,617.468 L 296.526,617.468 L 296.526,565.011 C 296.526,548.733 291.305,540.593 280.864,540.593 C 273.118,540.593 267.195,543.961 263.098,550.697 C 259.561,556.591 257.793,564.084 257.793,573.177 L 257.793,617.467 L 241.542,617.467 L 241.542,565.01 C 241.542,548.732 236.321,540.592 225.881,540.592 C 218.134,540.592 212.212,543.96 208.114,550.696 C 204.521,556.59 202.725,564.083 202.725,573.176 L 202.725,617.466 L 186.56,617.466 L 186.56,529.561 L 201.716,529.561 L 201.716,542.276 L 202.053,542.276 C 208.116,532.396 217.433,527.456 230.008,527.456 C 242.245,527.456 250.581,533.154 255.016,544.549 C 257.766,538.823 262.059,534.39 267.898,531.245 C 272.669,528.72 277.441,527.456 282.212,527.456 C 302.588,527.456 312.776,538.655 312.776,561.052 L 312.776,617.468 z "
   id="path262" />
	<path
   d="M 409.186,617.468 L 394.03,617.468 L 394.03,606.101 L 393.693,606.101 C 387.295,615.082 378.201,619.573 366.413,619.573 C 356.476,619.573 348.73,617.385 343.174,613.007 C 337.166,608.291 334.164,601.331 334.164,592.124 C 334.164,582.134 338.879,574.556 348.31,569.39 C 355.831,565.238 364.756,563.16 375.085,563.16 C 382.326,563.16 388.053,563.273 392.263,563.497 C 392.263,555.639 390.691,549.913 387.547,546.32 C 384.122,542.504 378.453,540.594 370.538,540.594 C 360.658,540.594 352.154,543.57 345.025,549.519 L 344.183,535.71 C 353.446,530.21 363.099,527.458 373.148,527.458 C 385.497,527.458 394.536,530.519 400.261,536.636 C 405.761,542.531 408.512,551.597 408.512,563.833 L 408.512,600.208 C 408.512,608.291 408.736,614.045 409.186,617.468 z M 392.262,583.283 L 392.262,575.536 C 391.138,575.536 389.426,575.481 387.125,575.368 C 384.822,575.257 383.111,575.2 381.989,575.2 C 361.612,575.2 351.424,580.841 351.424,592.124 C 351.424,596.448 353.22,599.983 356.813,602.733 C 360.013,605.204 363.689,606.438 367.843,606.438 C 375.59,606.438 381.653,604.221 386.031,599.786 C 390.184,595.633 392.262,590.131 392.262,583.283 z "
   id="path264" />
	<path
   d="M 454.233,617.468 L 437.983,617.468 L 437.983,488.136 L 454.233,488.136 L 454.233,617.468 z "
   id="path266" />
</g>
<path
   id="path268" />
<path
   id="path270" />
</svg>